<svg xmlns="http://www.w3.org/2000/svg" viewBox="0 0 320 85" fill="none">
  <!-- Sunburst arc — tick marks along a semicircle, lighter tones for dark bg -->
  <g transform="translate(32, 40)">
    <line x1="0" y1="-22" x2="0" y2="-32" stroke="#5a8ab5" stroke-width="2.8" stroke-linecap="round" transform="rotate(-82)"/>
    <line x1="0" y1="-22" x2="0" y2="-31" stroke="#6094bf" stroke-width="2.8" stroke-linecap="round" transform="rotate(-70)"/>
    <line x1="0" y1="-21" x2="0" y2="-30" stroke="#669ec9" stroke-width="2.6" stroke-linecap="round" transform="rotate(-58)"/>
    <line x1="0" y1="-20" x2="0" y2="-29" stroke="#6da8d3" stroke-width="2.5" stroke-linecap="round" transform="rotate(-46)"/>
    <line x1="0" y1="-20" x2="0" y2="-29" stroke="#77b6e8" stroke-width="2.5" stroke-linecap="round" transform="rotate(-34)"/>
    <line x1="0" y1="-19" x2="0" y2="-28" stroke="#85bfec" stroke-width="2.5" stroke-linecap="round" transform="rotate(-22)"/>
    <line x1="0" y1="-19" x2="0" y2="-29" stroke="#93c8f0" stroke-width="2.6" stroke-linecap="round" transform="rotate(-10)"/>
    <line x1="0" y1="-19" x2="0" y2="-30" stroke="#a1d1f4" stroke-width="2.8" stroke-linecap="round" transform="rotate(2)"/>
    <line x1="0" y1="-19" x2="0" y2="-29" stroke="#afd9f7" stroke-width="2.6" stroke-linecap="round" transform="rotate(14)"/>
    <line x1="0" y1="-19" x2="0" y2="-28" stroke="#bde1fa" stroke-width="2.5" stroke-linecap="round" transform="rotate(26)"/>
    <line x1="0" y1="-20" x2="0" y2="-29" stroke="#c5e5fb" stroke-width="2.5" stroke-linecap="round" transform="rotate(38)"/>
    <line x1="0" y1="-20" x2="0" y2="-29" stroke="#cde9fc" stroke-width="2.5" stroke-linecap="round" transform="rotate(50)"/>
    <line x1="0" y1="-21" x2="0" y2="-30" stroke="#d5edfd" stroke-width="2.6" stroke-linecap="round" transform="rotate(62)"/>
    <line x1="0" y1="-22" x2="0" y2="-31" stroke="#ddf1fe" stroke-width="2.8" stroke-linecap="round" transform="rotate(74)"/>
    <line x1="0" y1="-22" x2="0" y2="-32" stroke="#e5f4ff" stroke-width="2.8" stroke-linecap="round" transform="rotate(86)"/>
  </g>
  <!-- "bright" in white -->
  <text x="10" y="62" font-family="'Inter','Helvetica Neue',Arial,sans-serif" font-size="38" font-weight="700" fill="#ffffff" letter-spacing="-0.5">bright</text>
  <!-- "path" in light blue -->
  <text x="136" y="62" font-family="'Inter','Helvetica Neue',Arial,sans-serif" font-size="38" font-weight="700" fill="#77b6e8" letter-spacing="-0.5">path</text>
  <!-- divider lines + Finance -->
  <line x1="60" y1="73" x2="112" y2="73" stroke="rgba(255,255,255,0.25)" stroke-width="1"/>
  <text x="117" y="77" font-family="'Inter','Helvetica Neue',Arial,sans-serif" font-size="13" font-weight="400" fill="rgba(255,255,255,0.5)" letter-spacing="2">Finance</text>
  <line x1="192" y1="73" x2="244" y2="73" stroke="rgba(255,255,255,0.25)" stroke-width="1"/>
</svg>
